<?xml version="1.0" standalone="no"?>
<!DOCTYPE svg PUBLIC "-//W3C//DTD SVG 20010904//EN"
 "http://www.w3.org/TR/2001/REC-SVG-20010904/DTD/svg10.dtd">
<svg version="1.0" xmlns="http://www.w3.org/2000/svg"
 width="700.000000pt" height="700.000000pt" viewBox="0 0 700.000000 700.000000"
 preserveAspectRatio="xMidYMid meet">
<metadata>
Created by potrace 1.11, written by Peter Selinger 2001-2013
</metadata>
<g transform="translate(0.000000,700.000000) scale(0.100000,-0.100000)"
fill="#000000" stroke="none">
<path d="M3389 6998 c-1 -2 -3 -160 -4 -353 -3 -398 -2 -365 -16 -365 -6 0
-40 -14 -75 -32 -117 -58 -209 -171 -245 -298 -7 -27 -13 -118 -14 -223 -2
-98 -4 -180 -7 -182 -2 -2 -15 -6 -28 -9 -60 -12 -148 -39 -238 -72 -486 -182
-892 -543 -1128 -1004 -21 -41 -39 -77 -39 -80 -1 -3 -11 -27 -23 -53 -47
-105 -108 -300 -126 -402 -3 -16 -10 -52 -15 -80 -8 -43 -24 -193 -24 -233 0
-7 -25 -25 -55 -40 -61 -30 -122 -94 -154 -161 -17 -37 -22 -65 -22 -141 -1
-83 2 -102 26 -150 49 -102 133 -168 243 -192 43 -10 146 -13 358 -12 l298 1
41 -85 c109 -228 313 -460 522 -597 73 -47 229 -127 293 -150 27 -10 55 -20
63 -23 19 -7 16 -6 70 -21 276 -79 589 -74 870 14 101 32 279 117 372 178 221
144 427 381 538 619 l30 65 308 0 c169 0 325 3 346 7 98 19 202 100 245 191
51 108 41 242 -25 341 -38 57 -110 119 -151 130 -13 3 -23 9 -24 13 0 3 -2 13
-3 21 -2 8 -6 55 -10 104 -4 49 -9 92 -11 96 -2 3 -6 26 -10 50 -8 53 -32 162
-46 205 -50 162 -111 312 -171 423 -36 67 -166 265 -200 304 -13 14 -38 45
-57 68 -46 56 -197 206 -241 239 -19 14 -44 34 -55 44 -72 65 -300 202 -430
259 -38 17 -83 36 -100 43 -42 19 -213 72 -257 80 -21 4 -38 10 -38 14 -1 3
-2 87 -3 186 -3 208 -15 261 -82 360 -48 70 -144 147 -215 172 -29 10 -50 24
-51 33 0 8 -1 169 -1 358 l-1 342 -113 0 c-63 0 -115 -1 -115 -2z m203 -951
c51 -22 94 -62 118 -114 19 -42 22 -65 24 -193 l1 -145 -232 0 -233 0 -1 40
c-2 111 1 227 6 256 8 43 57 113 98 138 64 39 151 46 219 18z m113 -692 c73
-7 75 -8 165 -26 665 -132 1210 -623 1413 -1274 33 -106 65 -266 73 -359 l6
-76 -29 -1 c-35 -1 -3627 -1 -3666 0 l-29 1 6 63 c10 110 17 150 37 232 11 44
22 89 24 99 16 71 87 250 144 356 230 434 605 749 1081 907 87 29 83 28 215
54 177 34 380 43 560 24z m1827 -1983 c32 -13 68 -66 68 -100 0 -43 -31 -94
-66 -108 -28 -12 -359 -14 -2040 -14 -1873 0 -2008 1 -2035 17 -93 55 -62 198
45 215 11 2 915 2 2010 2 1423 -1 1999 -5 2018 -12z m-892 -459 c0 -3 -12 -25
-27 -51 -283 -486 -825 -728 -1382 -616 -274 56 -562 235 -735 458 -51 65
-136 197 -136 210 0 1 513 3 1140 3 627 0 1140 -2 1140 -4z"/>
<path d="M1729 2611 c-19 -9 -119 -67 -224 -127 -104 -61 -329 -191 -500 -289
-567 -326 -541 -308 -549 -372 -9 -67 55 -137 119 -130 38 4 25 -3 500 272
220 127 489 282 597 345 161 93 200 119 213 146 20 43 19 72 -5 111 -33 55
-93 72 -151 44z"/>
<path d="M5172 2615 c-46 -20 -74 -70 -67 -120 8 -51 32 -76 124 -128 80 -45
87 -49 206 -118 73 -43 549 -317 842 -486 95 -55 129 -70 156 -68 94 5 144
109 89 183 -9 13 -165 109 -347 214 -181 105 -433 250 -560 323 -367 211 -349
202 -385 208 -14 3 -40 -1 -58 -8z"/>
<path d="M2474 1893 c-12 -2 -32 -16 -46 -31 -22 -24 -44 -59 -133 -217 -13
-22 -46 -80 -75 -130 -29 -49 -113 -196 -188 -325 -74 -129 -152 -264 -173
-299 -22 -34 -39 -64 -39 -66 0 -2 -27 -50 -60 -106 -69 -119 -76 -144 -56
-192 25 -62 90 -88 152 -62 30 13 93 105 183 271 12 21 31 55 42 74 12 19 138
238 281 485 272 470 279 486 249 544 -24 45 -78 66 -137 54z"/>
<path d="M4441 1887 c-33 -17 -61 -57 -65 -92 -3 -38 2 -49 195 -381 89 -153
171 -297 183 -319 13 -22 79 -138 149 -258 70 -120 138 -238 152 -263 41 -73
53 -88 82 -105 78 -45 183 27 169 115 -3 19 -29 73 -57 122 -28 49 -60 104
-71 122 -24 44 -196 343 -208 362 -4 8 -95 164 -201 347 -162 281 -197 335
-225 348 -39 18 -71 19 -103 2z"/>
<path d="M3442 1617 c-12 -7 -30 -24 -40 -37 -16 -23 -17 -78 -18 -750 0 -399
3 -737 8 -751 16 -48 54 -74 109 -74 42 0 53 5 81 33 l33 32 2 718 c1 394 -1
731 -4 748 -2 17 -15 43 -27 59 -18 22 -32 28 -72 32 -29 2 -58 -2 -72 -10z"/>
</g>
</svg>
